<?xml version="1.0" encoding="utf-8"?>
<!-- Generator: Adobe Illustrator 22.0.1, SVG Export Plug-In . SVG Version: 6.00 Build 0)  -->
<svg version="1.1" id="Layer_1" xmlns="http://www.w3.org/2000/svg" xmlns:xlink="http://www.w3.org/1999/xlink" x="0px" y="0px"
	 viewBox="0 0 281.6 53.7" style="enable-background:new 0 0 281.6 53.7;" xml:space="preserve">
<style type="text/css">
	.st0{fill:#4D65F6;}
</style>
<path class="st0" d="M71.4,31.1c0.2,0.5,0.4,1.1,0.7,1.6c0.2-0.6,0.4-1.1,0.7-1.6c0.2-0.5,0.5-1,0.7-1.5l9.7-18.3
	c0.1-0.2,0.3-0.4,0.4-0.5c0.1-0.1,0.3-0.2,0.4-0.3c0.2-0.1,0.3-0.1,0.5-0.1c0.2,0,0.4,0,0.7,0h4.6v33h-5.4V22c0-0.4,0-0.8,0-1.3
	c0-0.5,0.1-1,0.1-1.4L74.6,38c-0.5,0.9-1.2,1.3-2.2,1.3h-0.9c-1,0-1.7-0.4-2.2-1.3L59.3,19.2c0,0.5,0.1,1,0.1,1.5c0,0.5,0,0.9,0,1.3
	v21.3h-5.4v-33h4.6c0.3,0,0.5,0,0.7,0c0.2,0,0.4,0.1,0.5,0.1c0.2,0.1,0.3,0.2,0.4,0.3c0.1,0.1,0.3,0.3,0.4,0.5l9.9,18.3
	C70.9,30.1,71.1,30.6,71.4,31.1z M106.3,43.3v-33h11.4c2.2,0,4,0.2,5.5,0.6c1.5,0.4,2.8,1,3.8,1.8c1,0.8,1.7,1.7,2.2,2.8
	c0.5,1.1,0.7,2.3,0.7,3.7c0,0.8-0.1,1.5-0.3,2.2c-0.2,0.7-0.6,1.4-1.1,2c-0.5,0.6-1.1,1.2-1.8,1.7c-0.7,0.5-1.6,0.9-2.6,1.3
	c4.5,1,6.8,3.5,6.8,7.3c0,1.4-0.3,2.7-0.8,3.9c-0.5,1.2-1.3,2.2-2.3,3.1c-1,0.9-2.3,1.5-3.8,2c-1.5,0.5-3.2,0.7-5.1,0.7H106.3z
	 M112.4,24.6h4.9c2.1,0,3.7-0.4,4.8-1.1c1.1-0.8,1.6-2,1.6-3.6c0-1.7-0.5-2.9-1.5-3.7c-1-0.7-2.5-1.1-4.6-1.1h-5.2V24.6z
	 M112.4,28.8v9.7h6.2c1.1,0,2.1-0.1,2.9-0.4c0.8-0.3,1.4-0.6,1.9-1.1c0.5-0.5,0.8-1,1-1.6c0.2-0.6,0.3-1.3,0.3-1.9
	c0-0.7-0.1-1.4-0.3-1.9c-0.2-0.6-0.6-1.1-1.1-1.5c-0.5-0.4-1.1-0.7-1.9-0.9c-0.8-0.2-1.7-0.3-2.8-0.3H112.4z M151.6,43.3h-6.2v-33
	h6.2V43.3z M164.2,10.3h4.9c0.5,0,1,0.1,1.3,0.4c0.3,0.3,0.6,0.6,0.8,1l7.8,20.1c0.3,0.7,0.5,1.4,0.7,2.2c0.2,0.8,0.5,1.6,0.7,2.5
	c0.2-0.9,0.4-1.7,0.6-2.5c0.2-0.8,0.5-1.5,0.7-2.2l7.7-20.1c0.1-0.3,0.4-0.7,0.7-1c0.4-0.3,0.8-0.4,1.3-0.4h5l-13.3,33h-5.5
	L164.2,10.3z M251,10.4c0.2,0,0.4,0.1,0.5,0.1c0.1,0.1,0.3,0.2,0.4,0.3c0.1,0.1,0.3,0.3,0.5,0.5l17.3,22.1c0-0.5-0.1-1.1-0.1-1.6
	c0-0.5,0-1,0-1.4V10.3h5.4v33h-3.1c-0.5,0-0.9-0.1-1.2-0.2c-0.3-0.2-0.6-0.4-0.9-0.8l-17.2-22c0,0.5,0.1,1,0.1,1.4
	c0,0.5,0,0.9,0,1.3v20.3h-5.4v-33h3.2C250.6,10.3,250.8,10.3,251,10.4z M33.9,10.3L8.7,43.5h4.9c1.1,0,2.2-0.5,2.9-1.5l18-23.7v23
	c0,1.2,1,2.2,2.2,2.2h3.2V10.3H33.9z M224.2,10.3L199,43.5h4.9c1.1,0,2.2-0.5,2.9-1.5l18-23.7v23c0,1.2,1,2.2,2.2,2.2h3.2V10.3
	H224.2z M34.6,43.5L34.6,43.5l5.4,0v0H34.6z"/>
</svg>
